<?xml version="1.0" encoding="UTF-8"?>
<!DOCTYPE svg PUBLIC "-//W3C//DTD SVG 1.1//EN" "http://www.w3.org/Graphics/SVG/1.1/DTD/svg11.dtd">
<!-- Creator: CorelDRAW 2018 (64-Bit Оценочная версия) -->
<svg xmlns="http://www.w3.org/2000/svg" xml:space="preserve" width="210mm" height="297mm" version="1.1" style="shape-rendering:geometricPrecision; text-rendering:geometricPrecision; image-rendering:optimizeQuality; fill-rule:evenodd; clip-rule:evenodd"
viewBox="0 0 21000 29700"
 xmlns:xlink="http://www.w3.org/1999/xlink">
 <defs>
  <style type="text/css">
   <![CDATA[
    .fil0 {fill:#EBECEC}
   ]]>
  </style>
 </defs>
 <g id="Слой_x0020_1">
  <metadata id="CorelCorpID_0Corel-Layer"/>
  <path class="fil0" d="M7739.66 9644.24c18.34,40.26 107.56,160.12 139.47,205.65 228.67,326.27 480.54,695.58 711.04,1012.12 138.39,190.06 212.56,255.46 210.02,481.41 -2.55,226.55 -74.12,272.22 -213.89,477.34 -72.06,105.75 -825.84,1172.53 -842.87,1226.65 45.65,-17.04 631.65,-392.73 687.02,-427.3 200.9,-125.4 2011.41,-1254.4 2035.36,-1285.87l-2726.15 -1690zm-559.54 4207.22l-90.52 0c-82.93,-52.5 -224.68,-87.74 -155.89,-325.83 20.77,-71.91 621.61,-911.49 735.13,-1076.68l317.69 -459.09c73.4,-104.07 134.45,-192.38 212.18,-305.16 47.44,-68.82 198.27,-265.34 202.68,-324.81 6.96,-93.76 -33.37,-127.71 -75.8,-185.72 -37.09,-50.72 -66.05,-99.09 -106.48,-151.77 -35.87,-46.73 -71.58,-99.7 -106.66,-151.96 -166.24,-247.67 -361.67,-510.11 -538.22,-764.41 -16.95,-24.41 -621.85,-875.33 -636.27,-916.76 -52.23,-150.04 -15.85,-255.72 117.87,-321.05 1.87,-0.92 4,-1.82 5.85,-2.78l22.44 -14.08 89.69 0c20.34,10.73 48.06,16.02 69.56,25.6 20.89,9.32 43.68,22.34 62.79,35.15 245.91,164.86 592.01,356.85 844.13,523.98 146.26,96.98 325.02,200.08 482.82,298.82l1445.92 898.65c188.39,116.77 553.61,332.52 723.22,449.11 166.87,114.7 191.44,364.46 -2.85,510.72l-1684.19 1058.96c-318.19,205.56 -645.04,400.55 -960.56,603.24l-900.69 564.72c-25.67,12.27 -52.96,18.23 -73.84,31.15z"/>
 </g>
</svg>
